<?xml version="1.0" standalone="no"?>
<!DOCTYPE svg PUBLIC "-//W3C//DTD SVG 20010904//EN" "http://www.w3.org/TR/2001/REC-SVG-20010904/DTD/svg10.dtd">
<svg version="1.0" xmlns="http://www.w3.org/2000/svg"
    width="1024.000000pt" height="1024.000000pt" viewBox="0 0 1024.000000 1024.000000"
    preserveAspectRatio="xMidYMid meet">

    <g transform="translate(0.000000,1024.000000) scale(0.100000,-0.100000)"
        fill="#ffffff" stroke="none">
        <path
            d="M6462 9193 c-49 -24 -205 -194 -277 -303 -72 -107 -105 -176 -160
-330 -51 -144 -83 -203 -190 -360 -175 -255 -248 -443 -300 -770 -47 -296 -83
-389 -248 -640 -38 -58 -85 -136 -104 -173 -63 -125 -140 -181 -288 -211 -44
-9 -138 -27 -210 -42 -582 -116 -1085 -459 -1435 -979 -341 -508 -571 -1200
-621 -1865 -13 -176 -7 -335 22 -558 32 -252 24 -365 -31 -477 -40 -82 -92
-141 -200 -231 -133 -110 -206 -215 -235 -336 -31 -131 -16 -242 50 -373 140
-280 493 -501 1005 -630 355 -89 680 -131 1095 -141 560 -14 971 79 1081 246
53 79 31 191 -50 250 -105 78 -264 94 -611 61 -242 -23 -511 -27 -695 -11
-325 30 -682 119 -882 221 -46 24 -150 91 -146 94 2 2 44 -3 93 -11 136 -20
567 -62 770 -74 99 -6 533 -14 965 -17 839 -6 878 -5 969 41 57 29 74 48 102
111 62 140 -32 330 -197 396 -54 22 -73 24 -227 24 -154 0 -183 4 -157 20 14
9 132 209 183 310 106 214 173 436 184 608 3 54 10 94 14 90 10 -10 118 -243
336 -723 200 -440 334 -717 392 -807 75 -117 154 -152 366 -162 388 -18 545
48 562 238 13 142 -66 236 -250 297 -143 47 -183 76 -227 163 -69 139 -143
794 -144 1286 -1 248 1 279 22 374 45 199 118 368 254 587 190 306 292 528
353 769 98 385 69 747 -96 1203 -90 248 -89 322 7 378 52 31 104 45 279 77 72
14 149 34 170 45 49 25 115 90 162 160 53 80 145 281 151 328 6 58 -28 117
-133 232 -98 106 -114 135 -150 262 -14 51 -39 118 -55 149 -75 148 -251 301
-457 398 -107 50 -123 61 -118 78 46 165 86 368 83 416 -5 75 -28 109 -72 109
-39 0 -82 -27 -177 -113 -76 -67 -238 -186 -255 -187 -5 0 -15 43 -22 98 -44
343 -121 469 -250 405z" />
    </g>
</svg>