<?xml version="1.0" standalone="no"?>

<svg version="1.0" xmlns="http://www.w3.org/2000/svg"
    width="8000.000000pt" height="8000.000000pt" viewBox="0 0 8000.000000 8000.000000"
    preserveAspectRatio="xMidYMid meet">

    <g transform="translate(0.000000,8000.000000) scale(0.100000,-0.100000)"
        fill="#d5c9be" stroke="none">
        <path
            d="M59442 75445 c-83 -18 -222 -80 -313 -140 -100 -66 -361 -332 -870
-890 -1776 -1945 -3615 -4366 -5425 -7145 -223 -342 -276 -423 -405 -625 -128
-199 -381 -596 -626 -985 -674 -1069 -1555 -2528 -2370 -3930 -922 -1584
-2201 -3898 -3033 -5485 -34 -66 -75 -142 -90 -170 -15 -27 -132 -250 -260
-495 -128 -245 -256 -490 -285 -545 -490 -936 -1658 -3248 -2292 -4540 -244
-497 -457 -931 -543 -1110 -37 -77 -107 -221 -155 -320 -139 -285 -442 -914
-535 -1110 -26 -55 -75 -156 -107 -225 -96 -200 -346 -725 -403 -845 -47 -99
-111 -235 -262 -555 -60 -127 -402 -855 -451 -960 -19 -41 -82 -176 -140 -300
-57 -124 -278 -547 -489 -940 -212 -393 -497 -924 -633 -1180 -136 -256 -266
-501 -290 -545 -74 -138 -489 -924 -560 -1060 -37 -71 -82 -157 -100 -190 -34
-62 -546 -1043 -695 -1330 -45 -88 -102 -196 -125 -240 -23 -44 -89 -170 -145
-280 -56 -110 -128 -249 -160 -310 -51 -98 -139 -269 -545 -1060 -374 -729
-643 -1261 -1279 -2530 -729 -1453 -1235 -2475 -1601 -3230 -40 -82 -125 -258
-190 -390 -64 -132 -175 -359 -245 -505 -70 -146 -169 -350 -220 -455 -341
-704 -889 -1853 -1307 -2740 -436 -923 -1087 -2322 -1443 -3100 -45 -99 -123
-268 -172 -375 -88 -191 -615 -1351 -820 -1805 -57 -126 -165 -366 -239 -532
-73 -166 -136 -303 -139 -303 -3 0 -20 28 -37 63 -46 88 -170 325 -270 512
-1812 3379 -3905 6640 -6348 9890 -415 552 -666 878 -912 1188 -162 203 -178
221 -231 245 -47 21 -72 26 -137 26 -132 0 -206 -28 -576 -211 l-337 -166
-104 104 c-164 165 -336 275 -524 338 -130 44 -212 49 -304 21 -85 -26 133
117 -2565 -1681 -1078 -718 -2237 -1489 -2575 -1714 l-615 -409 -3873 -1933
c-3591 -1792 -3875 -1932 -3895 -1919 -95 59 -532 276 -575 285 -129 27 -332
-38 -532 -172 -111 -74 -276 -245 -323 -335 -62 -116 -61 -216 1 -275 16 -15
160 -96 321 -180 237 -124 295 -158 307 -182 35 -67 84 -94 189 -105 59 -7 87
-17 180 -67 61 -33 214 -115 340 -183 127 -68 298 -160 380 -205 83 -45 182
-99 220 -120 961 -521 2252 -1262 3350 -1923 187 -113 360 -217 385 -232 191
-114 930 -573 1305 -810 2074 -1311 4090 -2701 6039 -4164 353 -265 518 -403
1121 -940 1107 -986 2065 -1877 3255 -3025 457 -441 2226 -2214 2711 -2716
1797 -1861 3397 -3604 5220 -5685 229 -261 443 -500 477 -531 133 -124 375
-289 527 -360 96 -45 202 -72 252 -64 79 12 86 22 201 251 l108 216 113 -126
c113 -126 165 -168 231 -181 184 -39 442 76 668 298 134 132 79 43 787 1282
1131 1982 2179 3884 3725 6765 122 228 242 451 265 495 24 44 110 206 193 360
82 154 226 424 320 600 93 176 319 601 502 945 182 344 395 744 472 890 78
146 215 405 306 575 90 171 186 351 212 400 26 50 68 128 93 175 190 359 917
1732 1000 1890 27 52 64 122 82 155 18 33 132 247 253 475 445 842 940 1776
1139 2150 113 212 230 432 261 490 30 58 85 161 122 230 37 69 93 175 125 235
31 61 65 124 75 140 9 17 45 84 80 150 34 66 73 138 85 160 12 22 46 85 75
140 29 55 86 163 128 240 41 77 91 172 112 210 349 654 515 963 909 1699 432
803 545 1013 936 1736 120 222 389 718 477 880 17 30 62 114 101 185 670 1236
1918 3494 2645 4785 64 113 161 286 217 385 163 289 322 570 407 719 87 152
698 1068 1571 2353 834 1229 1803 2628 2705 3908 238 338 394 557 847 1195
519 730 1428 1986 2145 2965 5251 7164 10901 14125 16668 20534 349 388 382
428 382 460 0 116 -161 275 -513 506 -92 61 -167 113 -167 116 0 3 120 113
268 244 307 275 373 339 427 421 106 160 117 295 28 375 -15 14 -134 89 -263
166 -269 160 -1466 875 -2800 1673 -503 301 -1264 755 -1690 1010 -426 255
-993 594 -1260 753 -267 159 -690 412 -940 562 -250 149 -651 389 -890 532
-239 143 -727 435 -1085 648 -357 213 -749 447 -870 520 -121 73 -393 235
-605 362 -394 235 -607 363 -2130 1273 -481 288 -895 529 -919 537 -55 16
-137 16 -219 -2z m1063 -1813 c275 -164 636 -389 802 -498 322 -211 1322 -869
1813 -1193 287 -189 1554 -1022 1955 -1286 110 -72 886 -583 1725 -1135 839
-552 1588 -1044 1665 -1095 77 -51 255 -168 395 -260 238 -157 1587 -1045
1910 -1257 80 -52 273 -179 429 -282 l284 -187 -29 -28 c-16 -16 -130 -122
-254 -236 -2343 -2169 -4776 -4756 -7146 -7600 -3444 -4133 -6923 -8991
-10472 -14625 -46 -74 -110 -175 -142 -225 -404 -636 -1368 -2200 -2023 -3285
-71 -118 -155 -251 -187 -295 -88 -123 -383 -548 -1088 -1570 -1356 -1964
-3137 -4638 -4570 -6860 -618 -959 -1043 -1626 -1877 -2950 -141 -223 -610
-976 -755 -1210 -47 -77 -170 -275 -272 -440 -227 -367 -470 -762 -636 -1035
-68 -113 -143 -234 -165 -270 -199 -319 -1275 -2107 -1712 -2845 -82 -137
-225 -380 -320 -540 -814 -1374 -2039 -3499 -2840 -4925 -45 -80 -135 -239
-200 -355 -182 -324 -629 -1127 -752 -1350 -61 -110 -169 -306 -240 -435 -142
-257 -289 -525 -508 -925 -152 -277 -234 -428 -500 -920 -92 -170 -183 -339
-202 -374 -31 -58 -331 -616 -440 -821 -87 -162 -121 -225 -153 -285 -39 -73
-639 -1205 -720 -1360 -286 -545 -415 -792 -652 -1250 -151 -291 -326 -629
-388 -750 -62 -121 -145 -283 -185 -360 -40 -77 -141 -275 -225 -440 -84 -165
-199 -390 -255 -500 -57 -110 -130 -255 -164 -322 l-61 -122 -117 127 c-2027
2199 -4052 4201 -6218 6153 -3684 3317 -7649 6347 -11795 9014 -1330 855
-2538 1590 -3969 2412 -231 133 -813 486 -840 509 -3 3 1878 1257 7279 4852
l1915 1275 1454 723 c799 398 1457 724 1461 724 14 0 632 -810 991 -1300 1154
-1574 2509 -3636 3879 -5900 111 -184 235 -389 275 -455 372 -613 1019 -1726
1642 -2825 295 -520 982 -1770 1203 -2190 102 -193 122 -223 189 -294 209
-216 535 -429 736 -479 l49 -12 136 -285 c74 -157 160 -339 191 -405 31 -66
66 -128 77 -138 79 -71 273 -58 484 33 193 83 369 239 462 410 14 25 77 185
139 355 274 739 614 1637 970 2560 2187 5667 4468 11203 6922 16795 128 292
254 552 450 925 29 55 150 287 270 515 337 644 647 1232 845 1605 136 256 767
1438 795 1490 18 33 83 155 145 270 653 1216 1511 2785 2275 4160 470 846 481
864 825 1475 172 305 341 605 375 665 865 1536 2484 4334 3385 5850 59 99 207
349 330 555 951 1601 2130 3544 3075 5070 158 256 334 539 390 630 97 156 824
1320 1007 1610 2042 3245 4304 6702 6476 9900 151 223 313 460 359 527 l84
123 27 -14 c15 -8 252 -149 527 -314z m-3713 -2184 c-291 -436 -580 -872 -644
-968 -63 -96 -204 -310 -313 -475 -376 -569 -835 -1272 -1360 -2080 -450 -693
-1061 -1644 -1545 -2405 -194 -305 -394 -620 -445 -700 -120 -189 -459 -727
-662 -1050 -512 -817 -521 -832 -1008 -1615 -245 -393 -812 -1314 -1115 -1810
-241 -395 -342 -561 -785 -1290 -84 -137 -308 -511 -500 -830 -191 -319 -353
-584 -358 -590 -7 -7 -8 -7 -5 0 95 179 628 1156 861 1575 803 1448 1395 2482
2262 3950 322 545 905 1510 1200 1985 65 105 141 228 170 275 75 122 489 780
640 1015 1415 2211 2702 4024 4055 5713 40 50 75 92 77 92 2 0 -235 -357 -525
-792z m13638 -3748 c316 -189 773 -462 1015 -607 242 -144 445 -265 450 -267
6 -3 -10 -22 -34 -44 l-44 -39 -206 135 c-113 74 -276 181 -361 237 -167 110
-429 282 -727 478 -104 68 -303 199 -443 291 -140 93 -259 173 -265 179 -5 6
1 4 15 -4 14 -9 284 -170 600 -359z m-437 -3637 c-3573 -4042 -7670 -9010
-10977 -13310 -81 -106 -150 -193 -153 -193 -3 0 -1 6 4 13 6 6 156 219 335
472 3514 4979 7068 9297 10467 12718 256 257 466 467 468 467 2 0 -63 -75
-144 -167z m-60488 -36842 c-30 -27 -2213 -1475 -2225 -1475 -8 -1 -93 41
-189 93 l-174 94 1294 648 c712 356 1296 648 1299 648 2 1 0 -3 -5 -8z m23004
-1627 c-653 -1640 -1203 -3047 -1756 -4489 -118 -308 -246 -644 -286 -747 -40
-104 -75 -188 -78 -188 -3 0 -51 93 -106 206 l-100 206 154 347 c85 190 172
384 193 431 21 47 152 337 290 645 665 1477 1907 4181 1916 4172 2 -2 -100
-264 -227 -583z m9515 -1886 c-9 -18 -124 -233 -254 -478 -131 -245 -389 -731
-575 -1080 -185 -349 -358 -675 -385 -725 -26 -49 -83 -157 -127 -240 -44 -82
-106 -199 -138 -260 -32 -60 -72 -137 -90 -170 -68 -127 -137 -258 -607 -1145
-267 -503 -552 -1041 -633 -1195 -81 -154 -164 -311 -185 -350 -21 -38 -140
-263 -265 -500 -284 -537 -1002 -1893 -1060 -2000 -23 -44 -102 -192 -175
-330 -73 -137 -207 -389 -298 -560 -90 -170 -187 -353 -215 -405 -27 -52 -57
-108 -67 -125 -9 -16 -48 -88 -85 -160 -37 -71 -71 -134 -75 -140 -4 -5 -37
-68 -75 -140 -37 -71 -80 -152 -95 -180 -15 -27 -132 -246 -260 -485 -128
-239 -292 -545 -365 -680 -72 -135 -153 -285 -180 -335 -26 -49 -58 -108 -70
-130 -12 -22 -40 -74 -62 -115 -92 -172 -883 -1631 -993 -1830 -26 -47 -64
-116 -85 -155 -576 -1059 -1617 -2924 -2206 -3952 -13 -24 -26 -43 -29 -43 -3
0 -38 38 -77 84 l-73 84 64 123 c34 68 179 354 321 634 142 281 279 551 305
600 26 50 109 212 185 360 155 304 413 804 515 1000 37 72 154 297 260 500
106 204 209 402 230 440 20 39 72 138 115 220 77 149 125 240 209 398 24 45
86 163 138 262 88 167 384 725 483 910 484 905 775 1445 1143 2120 134 248
257 473 272 500 1000 1818 1560 2819 2421 4326 993 1739 1909 3304 2999 5122
144 240 184 302 144 225z m-17319 -11814 c897 -819 1659 -1548 2658 -2544
1185 -1179 2076 -2110 3145 -3282 l261 -288 -27 -57 c-16 -32 -48 -98 -73
-146 l-45 -89 -105 119 c-1269 1441 -2752 3064 -4034 4413 -556 585 -835 874
-1629 1685 -264 270 -460 472 -435 449 24 -22 152 -139 284 -260z" />
        <path
            d="M60388 70929 c-68 -39 52 -220 280 -422 165 -147 227 -190 499 -352
1973 -1175 3587 -2304 4288 -3000 275 -272 406 -454 461 -641 62 -207 -47
-591 -291 -1031 -295 -531 -623 -956 -1666 -2163 -206 -239 -782 -912 -1279
-1495 -498 -583 -1192 -1397 -1544 -1810 -352 -412 -926 -1085 -1276 -1495
-349 -410 -839 -983 -1087 -1275 -311 -363 -453 -537 -453 -553 0 -136 478
-581 771 -716 110 -51 140 -54 177 -19 16 15 162 183 323 373 161 190 696 818
1189 1395 1584 1856 3088 3619 3776 4425 1261 1478 1312 1539 1542 1848 480
645 733 1160 781 1586 18 158 -12 291 -109 481 -234 458 -771 1029 -1640 1746
-1007 830 -2597 1911 -4285 2914 -343 204 -408 233 -457 204z" />
        <path
            d="M19820 29935 c-125 -15 -302 -56 -420 -97 -153 -54 -848 -412 -1610
-831 -1785 -980 -3638 -2223 -5285 -3545 -403 -324 -495 -403 -501 -431 -3
-14 -7 -31 -9 -38 -2 -6 5 -23 16 -37 77 -98 493 -66 821 64 151 60 209 96
374 232 1854 1519 3720 2769 5844 3915 182 98 495 261 735 381 280 141 357
190 394 253 20 33 22 44 13 65 -16 34 -67 62 -126 69 -113 12 -145 12 -246 0z" />
    </g>
</svg>